HIERARCHY
ROOT Hips
{
	OFFSET 0.000000 97.420761 0.000000
	CHANNELS 6 Xposition Yposition Zposition Xrotation Yrotation Zrotation
	JOINT RightUpLeg
	{
		OFFSET -8.571318 0.002251 -0.000250
		CHANNELS 6 Xposition Yposition Zposition Xrotation Yrotation Zrotation
		JOINT RightLeg
		{
			OFFSET 0.000000 -44.326080 -0.000105
			CHANNELS 6 Xposition Yposition Zposition Xrotation Yrotation Zrotation
			JOINT RightFoot
			{
				OFFSET 0.000000 -43.324329 -0.000176
				CHANNELS 6 Xposition Yposition Zposition Xrotation Yrotation Zrotation
				JOINT RightToeBase
				{
					OFFSET 0.000000 -7.938133 18.050686
					CHANNELS 6 Xposition Yposition Zposition Xrotation Yrotation Zrotation
					End Site
					{
						OFFSET 0.000000 0.000000 19.719055
					}
				}
			}
		}
	}
	JOINT LeftUpLeg
	{
		OFFSET 8.571318 -0.000084 0.000009
		CHANNELS 6 Xposition Yposition Zposition Xrotation Yrotation Zrotation
		JOINT LeftLeg
		{
			OFFSET 0.000000 -44.326080 -0.000105
			CHANNELS 6 Xposition Yposition Zposition Xrotation Yrotation Zrotation
			JOINT LeftFoot
			{
				OFFSET 0.000000 -43.324329 -0.000176
				CHANNELS 6 Xposition Yposition Zposition Xrotation Yrotation Zrotation
				JOINT LeftToeBase
				{
					OFFSET 0.000000 -7.938133 18.050686
					CHANNELS 6 Xposition Yposition Zposition Xrotation Yrotation Zrotation
					End Site
					{
						OFFSET 0.000000 0.000000 19.719055
					}
				}
			}
		}
	}
	JOINT Spine
	{
		OFFSET 0.000000 10.422829 -1.158092
		CHANNELS 6 Xposition Yposition Zposition Xrotation Yrotation Zrotation
		JOINT Spine1
		{
			OFFSET 0.000000 11.587624 0.000000
			CHANNELS 3 Xrotation Yrotation Zrotation
			JOINT Spine2
			{
				OFFSET 0.000000 10.579559 -0.000443
				CHANNELS 6 Xposition Yposition Zposition Xrotation Yrotation Zrotation
				JOINT Spine3
				{
					OFFSET 0.000000 10.567749 -0.000444
					CHANNELS 6 Xposition Yposition Zposition Xrotation Yrotation Zrotation
					JOINT LeftShoulder
					{
						OFFSET 3.218383 8.290512 0.000000
						CHANNELS 6 Xposition Yposition Zposition Xrotation Yrotation Zrotation
						JOINT LeftArm
						{
							OFFSET 15.038529 0.000000 0.000000
							CHANNELS 3 Xrotation Yrotation Zrotation
							JOINT LeftForeArm
							{
								OFFSET 32.129166 0.000000 0.000000
								CHANNELS 3 Xrotation Yrotation Zrotation
								JOINT LeftHand
								{
									OFFSET 26.275406 0.000000 0.000000
									CHANNELS 3 Xrotation Yrotation Zrotation
									End Site
									{
										OFFSET 26.275406 0.000000 0.000000
									}
								}
							}
						}
					}
					JOINT RightShoulder
					{
						OFFSET -3.218383 8.290512 0.000000
						CHANNELS 6 Xposition Yposition Zposition Xrotation Yrotation Zrotation
						JOINT RightArm
						{
							OFFSET -15.038529 0.000000 0.000000
							CHANNELS 3 Xrotation Yrotation Zrotation
							JOINT RightForeArm
							{
								OFFSET -32.129166 0.000000 0.000000
								CHANNELS 3 Xrotation Yrotation Zrotation
								JOINT RightHand
								{
									OFFSET -26.275406 0.000000 0.000000
									CHANNELS 3 Xrotation Yrotation Zrotation
									End Site
									{
										OFFSET -26.275406 0.000000 0.000000
									}
								}
							}
						}
					}
					JOINT Neck
					{
						OFFSET 0.000000 14.789474 0.000000
						CHANNELS 6 Xposition Yposition Zposition Xrotation Yrotation Zrotation
						JOINT Head
						{
							OFFSET 0.000000 9.838806 0.000953
							CHANNELS 6 Xposition Yposition Zposition Xrotation Yrotation Zrotation
							End Site
							{
								OFFSET 0.000000 9.838806 0.000000
							}
						}
					}
				}
			}
		}
	}
}
MOTION
Frames: 10
Frame Time: 0.016667
0.000000 97.420761 0.000000 -0.000000 0.000000 -0.000000 -8.571318 0.002251 -0.000250 -0.000000 0.000000 -0.000000 0.000000 -44.326080 -0.000105 -0.000000 0.000000 -0.000000 0.000000 -43.324329 -0.000176 -0.000000 0.000000 -0.000000 0.000000 -7.938133 18.050686 -0.000000 0.000000 -0.000000 8.571318 -0.000084 0.000009 -0.000000 0.000000 -0.000000 0.000000 -44.326080 -0.000105 -0.000000 0.000000 -0.000000 0.000000 -43.324329 -0.000176 -0.000000 0.000000 -0.000000 0.000000 -7.938133 18.050686 -0.000000 0.000000 -0.000000 0.000000 10.422829 -1.158092 -0.000000 0.000000 -0.000000 -0.000000 0.000000 -0.000000 0.000000 10.579559 -0.000443 -0.000000 0.000000 -0.000000 0.000000 10.567749 -0.000444 -0.000000 0.000000 -0.000000 3.218383 8.290512 0.000000 -0.000000 0.000000 -0.000000 -0.000000 0.000000 -0.000000 -0.000000 0.000000 -0.000000 -0.000000 0.000000 -0.000000 -3.218383 8.290512 0.000000 -0.000000 0.000000 -0.000000 -0.000000 0.000000 -0.000000 -0.000000 0.000000 -0.000000 -0.000000 0.000000 -0.000000 0.000000 14.789474 0.000000 -0.000000 0.000000 -0.000000 0.000000 9.838806 0.000953 -0.000000 0.000000 -0.000000 
-143.669800 74.262337 -5.465441 -40.069827 50.260425 29.270253 -8.571320 0.002262 -0.000237 -37.096103 -0.252522 -1.968691 -0.000002 -44.326084 -0.000098 65.857961 -0.190871 1.494043 -0.000003 -43.324333 -0.000169 -2.974199 -4.337457 12.672728 -0.000010 -7.938134 18.050678 0.000001 -0.000002 0.000001 8.571314 -0.000073 0.000025 -38.477516 -2.869276 -0.115160 -0.000002 -44.326077 -0.000104 66.551417 0.529902 -1.906185 -0.000017 -43.324329 -0.000190 -3.230243 -2.953717 -18.054787 0.000005 -7.938133 18.050678 -0.000000 -0.000001 0.000001 0.000001 10.422820 -1.158081 14.959035 -0.236285 0.968727 0.935597 -0.178044 0.406896 -0.000006 10.579542 -0.000445 6.641976 -0.178494 0.406714 0.000002 10.567752 -0.000450 10.703779 -0.107116 0.315535 3.218394 8.290533 -0.000009 -5.240999 -4.358976 -8.787821 -5.386388 -12.304888 -70.899939 -31.713224 -43.516863 -58.625843 -3.799355 2.877871 -11.988223 -3.218366 8.290511 0.000002 -2.374099 6.675648 9.137936 -15.471413 -2.807514 74.266163 -18.635177 35.583291 53.424599 0.757689 -12.271322 5.179289 0.000013 14.789467 -0.000003 6.594850 -5.806073 4.306549 -0.000002 9.838821 0.000961 -22.972943 -12.458586 4.992318 
-146.504501 73.868332 -5.551981 -41.615072 50.857985 30.653612 -8.571316 0.002253 -0.000258 -37.558367 -0.101967 -1.993035 0.000003 -44.326084 -0.000097 66.606557 -0.434265 1.678262 -0.000011 -43.324329 -0.000170 -2.132203 -4.206497 12.554102 0.000007 -7.938131 18.050680 -0.000000 -0.000001 -0.000001 8.571318 -0.000074 -0.000011 -39.166060 -3.130851 -0.080654 -0.000009 -44.326080 -0.000101 68.092628 0.335384 -2.310323 -0.000004 -43.324326 -0.000183 -3.684551 -2.587958 -18.547898 0.000006 -7.938133 18.050682 -0.000000 -0.000000 -0.000001 0.000003 10.422825 -1.158095 15.274799 -0.218887 0.965360 0.962112 -0.171206 0.406396 -0.000005 10.579557 -0.000448 6.782544 -0.171247 0.406377 -0.000008 10.567751 -0.000431 10.923402 -0.101496 0.314868 3.218393 8.290526 -0.000001 -5.298012 -4.397369 -8.947314 -5.592007 -12.443339 -72.358560 -32.842565 -44.139886 -60.143729 -3.941646 2.969184 -12.158094 -3.218379 8.290521 -0.000009 -2.347195 6.789500 9.388508 -15.648810 -3.090007 75.565108 -19.361273 35.953501 54.823593 0.786870 -12.401487 5.304421 0.000004 14.789471 -0.000004 6.754932 -5.897379 4.392740 0.000001 9.838788 0.000944 -23.382420 -12.683081 5.039351 
-146.464706 73.928078 -5.528807 -41.699312 50.778451 30.744679 -8.571317 0.002245 -0.000252 -37.321947 -0.005008 -1.995619 0.000001 -44.326088 -0.000098 66.265027 -0.629685 1.770562 -0.000015 -43.324326 -0.000171 -1.647029 -4.044187 12.370932 -0.000010 -7.938135 18.050680 0.000000 0.000002 0.000001 8.571312 -0.000076 0.000010 -39.089497 -3.274020 -0.024846 0.000010 -44.326084 -0.000103 68.277016 0.204039 -2.604379 -0.000008 -43.324326 -0.000175 -3.885560 -2.382012 -18.542878 0.000004 -7.938131 18.050678 -0.000000 0.000001 -0.000001 -0.000001 10.422828 -1.158096 15.289423 -0.209661 0.939838 0.968638 -0.165198 0.395911 0.000011 10.579582 -0.000425 6.789070 -0.165242 0.395893 0.000005 10.567742 -0.000441 10.928310 -0.097699 0.306640 3.218378 8.290507 -0.000014 -5.239541 -4.371806 -8.931916 -5.561230 -12.434289 -72.435604 -32.699124 -44.357943 -59.960776 -4.022164 2.970879 -12.156619 -3.218386 8.290518 -0.000014 -2.272984 6.766729 9.446531 -15.607023 -3.119332 75.520589 -19.305441 35.921505 54.885559 0.797500 -12.317230 5.317641 -0.000002 14.789475 -0.000007 6.780900 -5.877989 4.387944 0.000007 9.838801 0.000947 -23.333313 -12.645177 5.042651 
-146.417831 73.976036 -5.499475 -41.787231 50.715944 30.849168 -8.571326 0.002255 -0.000247 -37.110023 0.021108 -2.021575 -0.000000 -44.326077 -0.000098 66.154480 -0.774288 1.765535 -0.000006 -43.324333 -0.000179 -1.813698 -3.909292 12.461404 -0.000002 -7.938133 18.050676 0.000000 -0.000003 0.000001 8.571312 -0.000074 0.000016 -38.987253 -3.310890 0.045202 -0.000004 -44.326073 -0.000105 68.323926 0.117903 -2.798660 -0.000003 -43.324333 -0.000179 -3.849366 -2.468958 -18.323659 0.000004 -7.938134 18.050695 0.000001 -0.000001 0.000000 -0.000005 10.422834 -1.158085 15.300336 -0.215126 0.909048 0.973479 -0.165222 0.381970 -0.000000 10.579557 -0.000449 6.793912 -0.165258 0.381953 -0.000007 10.567754 -0.000442 10.931956 -0.098622 0.296223 3.218375 8.290522 0.000017 -5.167672 -4.363265 -8.919020 -5.522768 -12.401166 -72.503018 -32.510819 -44.651525 -59.693668 -4.132125 2.933132 -12.266161 -3.218389 8.290493 0.000015 -2.207138 6.730242 9.500036 -15.550845 -3.122792 75.501177 -19.242181 35.959300 54.940443 0.825106 -12.264771 5.331672 -0.000015 14.789464 0.000009 6.813660 -5.854617 4.384403 0.000009 9.838827 0.000960 -23.271129 -12.600528 5.050806 
-146.365494 74.019722 -5.467268 -41.883379 50.664765 30.970338 -8.571328 0.002250 -0.000266 -36.907214 0.006057 -2.066312 -0.000014 -44.326069 -0.000103 66.180879 -0.869235 1.699744 -0.000005 -43.324329 -0.000181 -2.383190 -3.823517 12.749173 -0.000004 -7.938134 18.050688 -0.000000 -0.000002 0.000001 8.571306 -0.000074 -0.000003 -38.867123 -3.289962 0.120975 0.000007 -44.326080 -0.000103 68.281784 0.077828 -2.943275 -0.000009 -43.324329 -0.000200 -3.630630 -2.764330 -17.952445 -0.000004 -7.938132 18.050688 0.000000 -0.000001 0.000001 0.000003 10.422817 -1.158091 15.309637 -0.231113 0.872956 0.977587 -0.169437 0.364886 0.000002 10.579563 -0.000436 6.798021 -0.169470 0.364870 0.000005 10.567754 -0.000434 10.935035 -0.102886 0.283728 3.218378 8.290518 0.000009 -5.085221 -4.368399 -8.910082 -5.481442 -12.353152 -72.556136 -32.295354 -44.978145 -59.374807 -4.259590 2.868158 -12.449298 -3.218387 8.290516 0.000011 -2.145940 6.682961 9.552615 -15.479632 -3.106725 75.502065 -19.169795 36.048509 54.985495 0.863135 -12.236525 5.341459 -0.000003 14.789474 0.000011 6.852042 -5.829257 4.382750 0.000002 9.838802 0.000947 -23.198090 -12.552995 5.063880 
-146.324707 74.061653 -5.448565 -41.977147 50.636068 31.093736 -8.571319 0.002251 -0.000261 -36.744348 -0.002122 -2.120715 -0.000008 -44.326061 -0.000100 66.207858 -0.843835 1.635445 -0.000009 -43.324333 -0.000180 -2.868352 -3.912878 13.102396 -0.000002 -7.938134 18.050678 -0.000000 0.000001 -0.000000 8.571312 -0.000079 -0.000002 -38.771695 -3.296377 0.161006 -0.000014 -44.326069 -0.000102 68.211911 0.137229 -3.081904 0.000004 -43.324337 -0.000193 -3.287206 -3.138466 -17.578118 -0.000001 -7.938132 18.050673 -0.000001 0.000002 -0.000001 0.000003 10.422825 -1.158093 15.318656 -0.250820 0.838193 0.981561 -0.175380 0.348096 -0.000010 10.579567 -0.000427 6.801994 -0.175422 0.348077 -0.000007 10.567752 -0.000445 10.938029 -0.108424 0.271565 3.218394 8.290534 0.000005 -5.016339 -4.388880 -8.915273 -5.460598 -12.316665 -72.552619 -32.153047 -45.152308 -59.154445 -4.346669 2.805353 -12.614107 -3.218372 8.290523 0.000008 -2.103109 6.638016 9.596603 -15.400844 -3.075847 75.528396 -19.098172 36.157495 54.990314 0.891444 -12.242668 5.326845 0.000007 14.789497 0.000003 6.885824 -5.813468 4.386947 -0.000002 9.838812 0.000946 -23.133523 -12.525582 5.082438 
-146.300293 74.110100 -5.455490 -42.080724 50.640453 31.242484 -8.571333 0.002262 -0.000240 -36.621388 0.012338 -2.201220 -0.000012 -44.326077 -0.000106 66.186971 -0.599832 1.575723 -0.000009 -43.324329 -0.000178 -3.145878 -4.336203 13.584906 -0.000000 -7.938137 18.050686 -0.000000 -0.000001 -0.000000 8.571301 -0.000077 0.000013 -38.719635 -3.383758 0.149061 -0.000007 -44.326050 -0.000102 68.107586 0.381779 -3.277848 -0.000008 -43.324326 -0.000172 -2.648871 -3.720445 -17.122220 0.000006 -7.938133 18.050678 -0.000001 0.000000 -0.000000 -0.000014 10.422828 -1.158082 15.329432 -0.279938 0.800258 0.986300 -0.185224 0.329175 -0.000004 10.579556 -0.000442 6.806730 -0.185252 0.329157 -0.000004 10.567731 -0.000456 10.941591 -0.117009 0.258064 3.218382 8.290534 0.000013 -4.965901 -4.434941 -8.944723 -5.470041 -12.296306 -72.466333 -32.106537 -45.098383 -59.057531 -4.386151 2.743233 -12.761995 -3.218380 8.290526 0.000017 -2.087571 6.591740 9.632970 -15.304840 -3.017866 75.593078 -19.023714 36.288918 54.935840 0.908344 -12.312217 5.262032 0.000005 14.789469 0.000018 6.914160 -5.811406 4.400754 -0.000007 9.838819 0.000964 -23.078700 -12.527541 5.111227 
-146.283417 74.162178 -5.474922 -42.193818 50.665209 31.409226 -8.571323 0.002255 -0.000245 -36.520762 0.034970 -2.298408 -0.000008 -44.326073 -0.000106 66.164835 -0.222795 1.511549 -0.000013 -43.324326 -0.000174 -3.373612 -4.960180 14.170466 0.000002 -7.938134 18.050694 -0.000001 -0.000000 -0.000000 8.571314 -0.000079 0.000013 -38.683504 -3.504420 0.102944 0.000006 -44.326092 -0.000092 67.969842 0.741659 -3.486179 0.000002 -43.324333 -0.000174 -1.835341 -4.423034 -16.609753 0.000001 -7.938134 18.050682 -0.000001 -0.000003 -0.000000 -0.000003 10.422827 -1.158086 15.341133 -0.315236 0.759558 0.991447 -0.197544 0.308560 0.000000 10.579567 -0.000428 6.811879 -0.197572 0.308540 -0.000006 10.567732 -0.000431 10.945455 -0.127568 0.243458 3.218388 8.290529 0.000009 -4.921938 -4.499890 -8.990068 -5.499256 -12.284606 -72.318111 -32.126683 -44.899352 -59.046050 -4.391383 2.676966 -12.908161 -3.218380 8.290507 -0.000001 -2.086477 6.542671 9.665628 -15.191188 -2.940352 75.688051 -18.940639 36.453474 54.837711 0.917552 -12.419334 5.169040 0.000003 14.789480 0.000000 6.941564 -5.817890 4.421432 0.000004 9.838802 0.000962 -23.025213 -12.548092 5.148253 
-146.264496 74.203033 -5.477859 -42.284847 50.674222 31.527723 -8.571325 0.002253 -0.000257 -36.429087 0.064338 -2.356905 -0.000009 -44.326084 -0.000100 66.147418 0.009512 1.487646 -0.000014 -43.324333 -0.000176 -3.528266 -5.358391 14.543850 -0.000003 -7.938134 18.050684 -0.000000 0.000000 -0.000000 8.571306 -0.000079 0.000008 -38.624669 -3.574108 0.052636 0.000005 -44.326088 -0.000101 67.886486 0.973556 -3.587378 0.000011 -43.324329 -0.000184 -1.435085 -4.744908 -16.381666 -0.000008 -7.938133 18.050684 -0.000000 -0.000002 0.000001 -0.000003 10.422835 -1.158081 15.350640 -0.333656 0.730522 0.995651 -0.203371 0.294380 0.000013 10.579559 -0.000429 6.816083 -0.203402 0.294358 0.000004 10.567748 -0.000461 10.948622 -0.132849 0.233237 3.218378 8.290510 -0.000024 -4.877541 -4.550120 -9.025048 -5.529539 -12.283979 -72.170490 -32.197816 -44.694214 -59.124658 -4.356488 2.631292 -12.987204 -3.218384 8.290511 -0.000019 -2.071467 6.507400 9.694882 -15.088286 -2.887850 75.771052 -18.857840 36.616344 54.741869 0.912344 -12.471070 5.114503 -0.000006 14.789476 -0.000021 6.967448 -5.825216 4.439520 0.000002 9.838805 0.000964 -22.974936 -12.568982 5.180035 
